<svg width="500" height="500" viewBox="0 0 500 500" fill="none" xmlns="http://www.w3.org/2000/svg">
<rect width="500" height="500" fill="white"/>
<path d="M202 117.169C202 115.742 203.006 114.512 204.405 114.229L246.405 105.728C248.263 105.352 250 106.772 250 108.668V282.63C250 284.006 249.064 285.206 247.729 285.54L205.729 296.065C203.835 296.54 202 295.108 202 293.155V117.169Z" fill="#00A693"/>
<path d="M257 105.799C257 104.243 258.19 102.945 259.74 102.81L288.74 100.284C290.493 100.131 292 101.513 292 103.273V217.379C292 218.771 291.043 219.98 289.688 220.299L260.688 227.131C258.805 227.575 257 226.146 257 224.211V105.799Z" fill="#00A693"/>
<path d="M299.5 103C299.5 101.343 300.858 99.9703 302.476 100.329C305.066 100.903 307.608 102.225 310.024 104.263C313.36 107.077 316.392 111.202 318.945 116.402C321.499 121.602 323.525 127.775 324.907 134.57C326.289 141.364 327 148.646 327 156C327 163.354 326.289 170.636 324.907 177.43C323.525 184.225 321.499 190.398 318.945 195.598C316.392 200.798 313.36 204.923 310.024 207.737C307.608 209.775 305.066 211.097 302.476 211.671C300.858 212.03 299.5 210.657 299.5 209L299.5 156L299.5 103Z" fill="#00A693"/>
<path d="M130.209 380V330.156H143.378C146.134 330.156 148.315 330.77 149.92 331.997C151.544 333.224 152.705 334.971 153.403 337.236C154.102 339.502 154.451 342.202 154.451 345.336C154.451 348.357 154.159 350.991 153.573 353.237C152.988 355.465 151.94 357.193 150.43 358.42C148.938 359.647 146.814 360.261 144.058 360.261H140.008V380H130.209ZM140.008 351.312H140.574C142.424 351.312 143.557 350.792 143.973 349.754C144.388 348.715 144.596 347.186 144.596 345.166C144.596 343.278 144.388 341.824 143.973 340.805C143.576 339.766 142.623 339.247 141.112 339.247H140.008V351.312ZM165.185 380.453C162.825 380.453 161.021 379.906 159.775 378.811C158.548 377.715 157.708 376.215 157.255 374.308C156.802 372.401 156.575 370.239 156.575 367.822C156.575 365.236 156.83 363.121 157.34 361.479C157.85 359.817 158.718 358.458 159.945 357.4C161.191 356.343 162.9 355.446 165.071 354.71L171.358 352.558V348.196C171.358 345.912 170.613 344.77 169.121 344.77C167.762 344.77 167.082 345.695 167.082 347.545V350.094H157.227C157.208 349.943 157.198 349.754 157.198 349.527C157.198 349.282 157.198 349.008 157.198 348.706C157.198 344.477 158.189 341.484 160.172 339.729C162.173 337.954 165.336 337.066 169.659 337.066C171.925 337.066 173.954 337.472 175.748 338.284C177.542 339.077 178.958 340.257 179.996 341.824C181.053 343.391 181.582 345.326 181.582 347.63V380H171.5V374.959C171.009 376.734 170.197 378.093 169.064 379.037C167.932 379.981 166.638 380.453 165.185 380.453ZM169.178 372.58C170.008 372.58 170.575 372.231 170.877 371.532C171.179 370.834 171.33 370.078 171.33 369.267V357.429C169.933 357.995 168.847 358.713 168.073 359.581C167.299 360.431 166.912 361.686 166.912 363.348V368.813C166.912 371.325 167.667 372.58 169.178 372.58ZM196.932 387.363C194.968 387.363 193.278 387.259 191.862 387.052C190.465 386.863 189.21 386.514 188.096 386.004C186.982 385.494 185.868 384.777 184.754 383.852L188.181 377.989C190.654 379.462 193.127 380.198 195.601 380.198C197.224 380.198 198.433 379.679 199.226 378.641C200.019 377.602 200.415 376.252 200.415 374.591V370.428C199.603 373.335 197.441 374.789 193.93 374.789C191.91 374.789 190.276 374.308 189.03 373.345C187.784 372.382 186.878 371.079 186.312 369.437C185.745 367.794 185.462 365.963 185.462 363.942V348.678C185.462 346.393 185.707 344.382 186.198 342.646C186.689 340.89 187.548 339.521 188.775 338.539C190.003 337.557 191.721 337.066 193.93 337.066C195.799 337.066 197.253 337.538 198.291 338.482C199.348 339.426 200.056 340.701 200.415 342.306V337.52H210.752V373.939C210.752 378.754 209.638 382.19 207.41 384.248C205.201 386.325 201.708 387.363 196.932 387.363ZM198.036 367.143C199.622 367.143 200.415 365.708 200.415 362.838V348.395C200.415 347.62 200.188 346.827 199.735 346.016C199.301 345.204 198.697 344.798 197.923 344.798C196.941 344.798 196.327 345.166 196.082 345.902C195.837 346.62 195.714 347.451 195.714 348.395V362.838C195.714 363.857 195.837 364.83 196.082 365.755C196.346 366.68 196.998 367.143 198.036 367.143ZM226.611 380.453C223.59 380.453 221.183 379.887 219.39 378.754C217.596 377.621 216.312 375.988 215.538 373.854C214.764 371.721 214.377 369.153 214.377 366.151V349.074C214.377 345.128 215.51 342.145 217.775 340.125C220.041 338.086 223.156 337.066 227.121 337.066C235.277 337.066 239.355 341.069 239.355 349.074V352.161C239.355 355.899 239.318 358.41 239.242 359.694H224.516V367.907C224.516 368.662 224.563 369.408 224.657 370.145C224.752 370.862 224.959 371.457 225.28 371.929C225.62 372.401 226.158 372.637 226.895 372.637C227.952 372.637 228.613 372.184 228.877 371.277C229.141 370.352 229.273 369.153 229.273 367.681V363.603H239.355V366.01C239.355 369.182 238.959 371.844 238.166 373.996C237.392 376.13 236.07 377.744 234.201 378.839C232.351 379.915 229.821 380.453 226.611 380.453ZM224.459 354.653H229.273V348.933C229.273 347.403 229.085 346.308 228.707 345.647C228.329 344.968 227.763 344.628 227.008 344.628C226.196 344.628 225.563 344.949 225.11 345.591C224.676 346.233 224.459 347.347 224.459 348.933V354.653ZM243.037 380V337.52H252.949V342.447C253.402 340.71 254.176 339.379 255.271 338.454C256.367 337.529 257.971 337.066 260.086 337.066C261.785 337.066 263.229 337.463 264.419 338.256C265.627 339.03 266.477 340.059 266.968 341.343C267.742 339.946 268.648 338.888 269.687 338.171C270.744 337.435 272.245 337.066 274.189 337.066C276.549 337.066 278.362 337.576 279.627 338.596C280.911 339.596 281.798 340.993 282.289 342.787C282.799 344.562 283.054 346.62 283.054 348.961V380H272.943V348.791C272.943 346.053 272.245 344.685 270.848 344.685C270.111 344.685 269.545 344.939 269.148 345.449C268.752 345.94 268.478 346.554 268.327 347.29C268.176 348.026 268.101 348.763 268.101 349.499V380H257.99V348.791C257.99 347.904 257.877 347.016 257.65 346.129C257.443 345.242 256.895 344.798 256.008 344.798C255.253 344.798 254.667 345.072 254.252 345.619C253.837 346.167 253.553 346.846 253.402 347.658C253.251 348.451 253.176 349.235 253.176 350.009V380H243.037ZM294.778 380.453C292.418 380.453 290.615 379.906 289.369 378.811C288.142 377.715 287.302 376.215 286.849 374.308C286.396 372.401 286.169 370.239 286.169 367.822C286.169 365.236 286.424 363.121 286.934 361.479C287.443 359.817 288.312 358.458 289.539 357.4C290.785 356.343 292.494 355.446 294.665 354.71L300.952 352.558V348.196C300.952 345.912 300.206 344.77 298.715 344.77C297.355 344.77 296.676 345.695 296.676 347.545V350.094H286.82C286.801 349.943 286.792 349.754 286.792 349.527C286.792 349.282 286.792 349.008 286.792 348.706C286.792 344.477 287.783 341.484 289.766 339.729C291.767 337.954 294.929 337.066 299.253 337.066C301.519 337.066 303.548 337.472 305.342 338.284C307.135 339.077 308.551 340.257 309.59 341.824C310.647 343.391 311.176 345.326 311.176 347.63V380H301.094V374.959C300.603 376.734 299.791 378.093 298.658 379.037C297.525 379.981 296.232 380.453 294.778 380.453ZM298.771 372.58C299.602 372.58 300.169 372.231 300.471 371.532C300.773 370.834 300.924 370.078 300.924 369.267V357.429C299.527 357.995 298.441 358.713 297.667 359.581C296.893 360.431 296.506 361.686 296.506 363.348V368.813C296.506 371.325 297.261 372.58 298.771 372.58ZM323.438 380.453C321.475 380.453 319.917 380.094 318.766 379.377C317.614 378.66 316.755 377.668 316.188 376.403C315.622 375.138 315.244 373.656 315.056 371.957C314.886 370.258 314.801 368.436 314.801 366.491V348.026C314.801 344.76 315.377 342.117 316.528 340.097C317.699 338.076 319.672 337.066 322.447 337.066C324.505 337.066 326.082 337.51 327.177 338.397C328.291 339.266 329.15 340.484 329.754 342.051V330.156H340.062V380H329.754V375.497C329.188 377.026 328.432 378.235 327.488 379.122C326.563 380.009 325.213 380.453 323.438 380.453ZM327.318 372.523C328.281 372.523 328.923 372.136 329.244 371.362C329.584 370.588 329.754 369.201 329.754 367.199V349.329C329.754 348.328 329.603 347.347 329.301 346.384C329.018 345.402 328.376 344.911 327.375 344.911C326.28 344.911 325.591 345.374 325.308 346.299C325.024 347.224 324.883 348.234 324.883 349.329V367.199C324.883 370.749 325.695 372.523 327.318 372.523ZM355.865 380.453C352.844 380.453 350.437 379.887 348.644 378.754C346.85 377.621 345.566 375.988 344.792 373.854C344.018 371.721 343.631 369.153 343.631 366.151V349.074C343.631 345.128 344.764 342.145 347.029 340.125C349.295 338.086 352.41 337.066 356.375 337.066C364.531 337.066 368.609 341.069 368.609 349.074V352.161C368.609 355.899 368.572 358.41 368.496 359.694H353.77V367.907C353.77 368.662 353.817 369.408 353.911 370.145C354.006 370.862 354.213 371.457 354.534 371.929C354.874 372.401 355.412 372.637 356.148 372.637C357.206 372.637 357.867 372.184 358.131 371.277C358.395 370.352 358.527 369.153 358.527 367.681V363.603H368.609V366.01C368.609 369.182 368.213 371.844 367.42 373.996C366.646 376.13 365.324 377.744 363.455 378.839C361.605 379.915 359.075 380.453 355.865 380.453ZM353.713 354.653H358.527V348.933C358.527 347.403 358.339 346.308 357.961 345.647C357.583 344.968 357.017 344.628 356.262 344.628C355.45 344.628 354.817 344.949 354.364 345.591C353.93 346.233 353.713 347.347 353.713 348.933V354.653Z" fill="#00A693"/>
</svg>
